<?xml version="1.0" encoding="UTF-8"?>
<svg width="153px" height="20px" viewBox="0 0 153 20" version="1.1" xmlns="http://www.w3.org/2000/svg" xmlns:xlink="http://www.w3.org/1999/xlink">
    <!-- Generator: Sketch 52.5 (67469) - http://www.bohemiancoding.com/sketch -->
    <title>Group</title>
    <desc>Created with Sketch.</desc>
    <defs>
        <radialGradient cx="0%" cy="0%" fx="0%" fy="0%" r="183.964652%" gradientTransform="translate(0.000000,0.000000),scale(0.647619,1.000000),rotate(32.927863),scale(1.000000,1.606518),translate(-0.000000,-0.000000)" id="radialGradient-1">
            <stop stop-color="#FFFFFF" offset="0%"></stop>
            <stop stop-color="#F3F3F3" offset="100%"></stop>
        </radialGradient>
        <rect id="path-2" x="0" y="0" width="30.8823529" height="20" rx="2"></rect>
        <radialGradient cx="21.0261418%" cy="16.5389623%" fx="21.0261418%" fy="16.5389623%" r="89.5806351%" gradientTransform="translate(0.210261,0.165390),scale(0.647619,1.000000),rotate(48.493154),scale(1.000000,1.092475),translate(-0.210261,-0.165390)" id="radialGradient-4">
            <stop stop-color="#65BCF2" offset="0%"></stop>
            <stop stop-color="#004FC5" offset="100%"></stop>
        </radialGradient>
        <path d="M0,2.00728323e-13 L0,20 L30.8823529,20 L30.8823529,10.1282051 L30.8823529,2.00728323e-13 L0,2.00728323e-13 Z" id="path-5"></path>
        <polygon id="path-7" points="0.00528274619 2.56410256 19.4431207 2.56410256 19.4431207 0.0132234432 0.00528274619 0.0132234432"></polygon>
        <polygon id="path-9" points="0 16.5965934 20.7201045 16.5965934 20.7201045 7.32600733e-05 0 7.32600733e-05"></polygon>
    </defs>
    <g id="Page-1" stroke="none" stroke-width="1" fill="none" fill-rule="evenodd">
        <g id="Group">
            <g id="Card-networks/Acceptance-Marks">
                <g>
                    <g id="img-fi-amex" transform="translate(66.367647, 0.000000)">
                        <mask id="mask-3" fill="white">
                            <use xlink:href="#path-2"></use>
                        </mask>
                        <use id="Mask" fill="url(#radialGradient-1)" xlink:href="#path-2"></use>
                        <g id="img-fi-amex-small" mask="url(#mask-3)">
                            <g transform="translate(0.000000, -0.324074)">
                                <mask id="mask-6" fill="white">
                                    <use xlink:href="#path-5"></use>
                                </mask>
                                <use id="Card-Bg-(bank-brand-color)" stroke="none" fill="url(#radialGradient-4)" fill-rule="evenodd" xlink:href="#path-5"></use>
                                <g id="Logo" stroke="none" stroke-width="1" fill="none" fill-rule="evenodd" mask="url(#mask-6)">
                                    <g transform="translate(-0.827206, 4.444444)">
                                        <path d="M8.06284976,4.98866213 L8.4999517,4.98866213 L8.62435764,4.70237121 L8.62519822,4.98866213 L15.7365107,4.98866213 L15.7365107,3.6754954 L15.9760762,3.6754954 C16.0063371,3.6754954 16.0332356,3.67635256 16.0567719,3.67635256 C16.0576125,3.71063889 16.0567719,3.74492523 16.0567719,3.7723543 L16.0559313,3.84778425 L16.0643371,4.98866213 L19.6544572,4.98866213 L19.6544572,4.59865504 C20.1361099,4.91837514 20.7287192,4.98866213 21.0792414,4.98866213 L22.5275619,4.98866213 L22.8444608,4.18207604 L23.706056,4.18207604 L24.0364042,4.98866213 L26.8842915,4.98866213 L26.8834509,4.05435943 L27.4373936,4.98866213 L29.6909903,4.98866213 L29.6909903,0 L27.4794226,0 L27.4794226,0.741442052 L27.0406395,0 L24.6954194,0 L24.6954194,0.760299538 L24.3768393,0 L21.1414444,0 C20.5202552,0 20.0327185,0.133716717 19.6544572,0.396864359 L19.6544572,0 L17.4445706,0 L17.4445706,0.227146987 C17.0469759,0.0248575948 16.6300479,0 16.1685691,0 L8.30745873,0 L7.70728414,1.44431197 L7.05499354,0 L4.5651936,0 L4.5651936,0.774014073 L4.23988888,0 L2.0913647,0 L0,4.98866213 L2.38977084,4.98866213 L2.7175973,4.18207604 L3.58339538,4.18207604 L3.90785952,4.98866213 L6.75574682,4.98866213 L6.75574682,4.7006569 L6.88183392,4.98866213 L8.06284976,4.98866213 L8.06284976,4.98866213 Z M19.6544572,1.38173941 C19.7107761,1.28659482 19.772979,1.19487887 19.8536748,1.10916302 C20.1285447,0.81944347 20.5572408,0.685726753 21.1414444,0.685726753 L21.9610105,0.685726753 L21.9610105,1.46059798 L21.1599371,1.46059798 C20.8506034,1.46059798 20.6732409,1.50859886 20.5042842,1.67574475 C20.3622261,1.82917611 20.262197,2.11632419 20.262197,2.49604538 C20.262197,2.88433816 20.3353275,3.16205749 20.496719,3.3454894 C20.6244872,3.48692054 20.8623716,3.53149278 21.085966,3.53149278 L21.4675897,3.53149278 L22.6620548,0.685726753 L23.9330128,0.685726753 L25.3678839,4.10750325 L25.3678839,0.685726753 L26.6615376,0.685726753 L28.1518871,3.20491541 L28.1518871,0.685726753 L29.0193664,0.685726753 L29.0193664,4.30379254 L27.817336,4.30379254 L26.2101458,1.59088607 L26.2118269,4.30379254 L24.4844337,4.30379254 L24.1540855,3.49634928 L22.3897066,3.49634928 L22.0728077,4.30379254 L21.0792414,4.30379254 C20.6656757,4.30379254 20.1436751,4.20950511 19.8503125,3.90521386 C19.5493846,3.59492251 19.3963989,3.18177214 19.3963989,2.52176014 C19.3963989,2.10346682 19.4577613,1.7160312 19.6544572,1.38173941 L19.6544572,1.38173941 Z M18.1170351,2.76690745 L18.1170351,0.685726753 L18.9819926,0.685726753 L18.9819926,4.30379254 L18.1170351,4.30379254 L18.1170351,2.76690745 L18.1170351,2.76690745 Z M14.2175814,0.685726753 L16.1685691,0.685726753 C16.599787,0.685726753 16.9208888,0.699441289 17.1949181,0.860587076 C17.4639039,1.0208757 17.6244548,1.25745143 17.6244548,1.66288738 C17.6244548,1.91489196 17.5454403,2.10689545 17.4445706,2.25861249 C17.3168023,2.45147314 17.1503673,2.57576112 17.0276426,2.62633347 C17.2125703,2.69833477 17.3705995,2.82347991 17.4445706,2.93148187 C17.5647736,3.10805651 17.5874693,3.27263093 17.5874693,3.59149387 L17.5874693,4.30379254 L16.7317582,4.30379254 L16.7283959,3.84778425 C16.7283959,3.63263748 16.750251,3.31806033 16.5922218,3.14577148 C16.4686564,3.01719772 16.2820475,2.98976865 15.9760762,2.98976865 L15.0640461,2.98976865 L15.0640461,4.30379254 L14.2175814,4.30379254 L14.2175814,0.685726753 L14.2175814,0.685726753 Z M10.7964181,0.685726753 L13.6291749,0.685726753 L13.6291749,1.4417405 L11.6454046,1.4417405 L11.6454046,2.0914666 L13.5804213,2.0914666 L13.5804213,2.83462297 L11.6454046,2.83205149 L11.6454046,3.55463606 L13.6291749,3.55463606 L13.6291749,4.30379254 L10.7964181,4.30379254 L10.7964181,0.685726753 L10.7964181,0.685726753 Z M6.08328229,1.46745525 L6.08328229,4.30379254 L4.35925134,4.30379254 L4.0347872,3.49634928 L2.26788664,3.49634928 L1.94090076,4.30379254 L1.01878377,4.30379254 L2.53519129,0.685726753 L3.79690287,0.685726753 L5.23765814,4.1126462 L5.23765814,0.685726753 L6.62461624,0.685726753 L7.73250156,3.14148569 L8.75296649,0.685726753 L10.165142,0.685726753 L10.165142,4.30379254 L9.29682218,4.30379254 L9.29177869,1.47345536 L8.06284976,4.30379254 L7.31893587,4.30379254 L6.08328229,1.46745525 L6.08328229,1.46745525 Z" id="Fill-1" fill="#FFFFFF"></path>
                                        <polyline id="Fill-2" fill="#FFFFFF" points="2.47424919 2.63038549 3.64389427 2.63038549 3.05737413 1.26984127 2.47424919 2.63038549"></polyline>
                                        <path d="M16.6008006,2.01664399 C16.7127428,1.96036281 16.7799082,1.84780045 16.7799082,1.70439909 C16.7799082,1.56639456 16.7110206,1.46539683 16.5999395,1.4168254 C16.4957471,1.36517007 16.3381669,1.36054422 16.1848921,1.36054422 L15.1154133,1.36054422 L15.1154133,2.08294785 L16.1711146,2.08294785 C16.3416113,2.08294785 16.4828307,2.07755102 16.6008006,2.01664399" id="Fill-3" fill="#FFFFFF"></path>
                                        <polyline id="Fill-4" fill="#FFFFFF" points="23.2541585 1.26984127 22.6731199 2.63038549 23.842765 2.63038549 23.2541585 1.26984127"></polyline>
                                        <polyline id="Fill-5" fill="#FFFFFF" points="14.0807272 10.1133787 14.0807272 7.16553288 12.8211095 8.61462173 14.0807272 10.1133787"></polyline>
                                        <path d="M15.9339834,7.4829932 L14.8005088,7.4829932 L14.8005088,8.48072562 L15.9253769,8.48072562 C16.258448,8.48072562 16.4650037,8.30388872 16.4650037,7.96417572 C16.4650037,7.61980912 16.2481202,7.4829932 15.9339834,7.4829932" id="Fill-6" fill="#FFFFFF"></path>
                                        <polyline id="Fill-7" fill="#FFFFFF" points="8.637379 7.4829932 8.637379 8.11583653 10.4755396 8.11583653 10.4755396 8.82809549 8.637379 8.82809549 8.637379 9.52380952 10.6954549 9.52380952 11.6514644 8.49967875 10.7352887 7.4829932 8.637379 7.4829932"></polyline>
                                        <path d="M31.7199637,8.26289522 L31.8153822,8.26289522 L31.8153822,6.12244898 L29.4516812,6.12244898 C29.054941,6.12244898 28.7326942,6.21584715 28.4656897,6.36065717 L28.4656897,6.12244898 L26.1028257,6.12244898 C25.7278477,6.12244898 25.418993,6.20556479 25.1603585,6.33580811 L25.1603585,6.12244898 L21.0012826,6.12244898 L21.0012826,6.34266302 C20.5944984,6.14729804 20.1935732,6.12244898 19.7524718,6.12244898 L17.1343213,6.12244898 L17.1343213,6.35722971 C16.8463918,6.21413343 16.4722507,6.12244898 15.98344,6.12244898 L12.9936595,6.12244898 L12.2202673,6.97502865 L11.4728222,6.12244898 L7.10784314,6.12244898 L7.10784314,11.1111111 L11.4142318,11.1111111 L11.6134389,10.8908971 L12.1926461,10.2491059 L12.9417653,11.1111111 L15.5507086,11.1111111 L15.5507086,9.89779171 L15.9348937,9.89779171 C16.4504886,9.89779171 16.8355107,9.79925235 17.1343213,9.65015801 L17.1343213,11.1111111 L19.3205774,11.1111111 L19.3205774,9.78896998 L19.5549387,9.78896998 C19.5884189,9.78896998 19.616877,9.78982684 19.6411501,9.79068371 C19.6419872,9.83009945 19.6411501,9.87037206 19.6411501,9.9003623 L19.6411501,9.97233887 L19.6411501,11.1111111 L26.6401827,11.1111111 C27.0419449,11.1111111 27.3842798,11.0331365 27.6738834,10.8994657 L27.6738834,11.1111111 L29.9898751,11.1111111 C31.239523,11.1111111 31.9852941,10.4273336 31.9852941,9.28256336 C31.9852941,8.87041179 31.8999196,8.53966229 31.7199637,8.26289522 L31.7199637,8.26289522 Z M16.9133521,8.99979825 C16.888242,9.01436494 16.8597838,9.02636103 16.8329997,9.03921399 C16.7735724,9.06920423 16.711634,9.09491015 16.6463477,9.11633175 C16.6137045,9.12575725 16.5818983,9.13518276 16.5484181,9.1437514 C16.4797837,9.16088868 16.4094754,9.17374164 16.337493,9.18316714 C16.3065238,9.18745146 16.2772286,9.19344951 16.2454225,9.19687696 C16.1433079,9.20630247 16.0395193,9.21230052 15.9348937,9.21230052 L14.8811049,9.21230052 L14.8811049,10.4256199 L13.2422499,10.4256199 L12.2018532,9.2294378 L11.1212802,10.4256199 L7.77744682,10.4256199 L7.77744682,6.80794017 L11.1740115,6.80794017 L12.2118972,7.9921262 L13.2857742,6.80794017 L15.98344,6.80794017 C16.0780215,6.80794017 16.1751141,6.81308135 16.2713696,6.82250686 C16.2998278,6.82507745 16.3266119,6.83021863 16.3550701,6.83450295 C16.4245414,6.84392846 16.4931758,6.85678142 16.5601362,6.87306183 C16.5911054,6.88077361 16.6204005,6.88934225 16.6505327,6.89876775 C16.717493,6.91933249 16.7802684,6.94675213 16.8422067,6.97759924 C16.8656429,6.98873847 16.889916,6.99816397 16.9116781,7.0118738 C16.9937046,7.05985818 17.069035,7.11555434 17.1343213,7.18667405 C17.3008853,7.36661549 17.4055108,7.62710214 17.4055108,8.00069484 C17.4055108,8.52081128 17.2063037,8.82499799 16.9133521,8.99979825 L16.9133521,8.99979825 Z M21.0163487,9.04863949 C21.1360404,9.22601034 21.1552915,9.39052823 21.1569655,9.71013849 L21.1569655,10.4256199 L20.3107538,10.4256199 L20.3107538,9.97233887 C20.3107538,9.75469542 20.3300049,9.43422829 20.1734851,9.26628295 C20.0504454,9.13346903 19.8621194,9.10347879 19.5549387,9.10347879 L18.6509737,9.10347879 L18.6509737,10.4256199 L17.804762,10.4256199 L17.804762,6.80794017 L19.7524718,6.80794017 C20.1810181,6.80794017 20.4932208,6.82593431 20.7694324,6.98102669 C20.8606659,7.03672285 20.9351593,7.10527197 21.0012826,7.18238973 C21.1243223,7.32805661 21.2013267,7.51399609 21.2013267,7.78390825 C21.2013267,8.35886399 20.8263487,8.6536252 20.6028684,8.74359592 C20.6941019,8.77787047 20.7744544,8.82499799 20.8430888,8.87640983 C20.9184192,8.93210599 20.9795205,8.99294334 21.0163487,9.04863949 L21.0163487,9.04863949 Z M24.4907549,6.93904036 L24.4907549,7.55769616 L22.512913,7.55769616 L22.512913,8.21319711 L24.4413716,8.21319711 L24.4413716,8.950957 L22.512913,8.950957 L22.512913,9.67157961 L24.4907549,9.67500707 L24.4907549,10.4256199 L21.6708863,10.4256199 L21.6708863,6.80794017 L24.4907549,6.80794017 L24.4907549,6.93904036 L24.4907549,6.93904036 Z M27.6738834,10.0743057 L27.6738834,10.0743057 C27.6278481,10.1222901 27.5742798,10.1625627 27.5165265,10.2002647 C27.4353371,10.2542471 27.3474516,10.3022315 27.246174,10.3365061 C27.2051608,10.349359 27.1591255,10.3579277 27.1147643,10.36821 C26.9733105,10.4024846 26.8184647,10.4256199 26.6401827,10.4256199 L24.9937946,10.4256199 L24.9937946,9.64930115 L26.6334866,9.64930115 C26.7958655,9.64930115 26.9071872,9.62787955 26.9783325,9.55933043 C27.0360859,9.50620486 27.0787731,9.42565965 27.0787731,9.3245497 C27.0787731,9.21915543 27.0344119,9.13346903 26.9741475,9.08548465 C26.9096982,9.02807476 26.8218127,9.00493943 26.6744999,9.0032257 C26.5447642,8.99894138 26.4091694,8.99465706 26.2735747,8.98951588 C26.2576716,8.98865902 26.2417685,8.98780215 26.2250284,8.98694529 C25.9345878,8.9723786 25.6500062,8.93381972 25.4164819,8.82328427 L25.4156449,8.82328427 C25.2976273,8.76673124 25.1946757,8.69047035 25.1109753,8.58850353 C24.9804025,8.4274131 24.8958651,8.2063422 24.8958651,7.88330447 C24.8958651,7.56026675 25.0197418,7.22608979 25.3227374,7.01787185 C25.3235744,7.01701498 25.3235744,7.01615812 25.3244114,7.01615812 C25.3813278,6.97759924 25.4449401,6.94503841 25.5135745,6.91590503 C25.5211075,6.91247758 25.5278036,6.90819326 25.5353366,6.9047658 C25.599786,6.87905988 25.6734424,6.86106574 25.7487728,6.84478532 C25.7646759,6.84221473 25.7780679,6.83621668 25.793971,6.83278922 C25.8885525,6.81650881 25.9906671,6.80794017 26.1028257,6.80794017 L27.7960861,6.80794017 L27.7960861,7.57740403 L26.2476275,7.57740403 C26.0927817,7.57740403 25.9931781,7.58425894 25.9078037,7.64252569 C25.8165702,7.70164931 25.782253,7.7899063 25.782253,7.90472607 C25.782253,8.03925372 25.8609314,8.13265189 25.966394,8.1729245 C26.0551165,8.20462847 26.149698,8.21319711 26.2936628,8.21491084 L26.7498303,8.22690693 C26.8569669,8.22947752 26.9548964,8.2371893 27.0452929,8.24832853 C27.1281564,8.2586109 27.2018128,8.27403445 27.2721212,8.29117173 C27.2771432,8.29202859 27.2830022,8.29288546 27.2880243,8.29459919 C27.4663062,8.34001298 27.609434,8.41027582 27.7123856,8.51652696 C27.8797865,8.69304094 27.965998,8.91325498 27.965998,9.28256336 C27.965998,9.63302073 27.8571874,9.88750934 27.6738834,10.0743057 L27.6738834,10.0743057 Z M29.9898751,10.4256199 L28.3434871,10.4256199 L28.3434871,9.64930115 L29.9831791,9.64930115 C30.145558,9.64930115 30.2560426,9.62787955 30.328025,9.55933043 C30.3857783,9.50620486 30.4276285,9.42565965 30.4276285,9.3245497 C30.4276285,9.21915543 30.3841043,9.13346903 30.32384,9.08548465 C30.2593906,9.02807476 30.1715051,9.00493943 30.0241923,9.0032257 C29.9019896,8.99894138 29.7747649,8.99551393 29.6475402,8.99037274 C29.6366592,8.99037274 29.6257781,8.98951588 29.6148971,8.98865902 C29.4851614,8.98266097 29.3579367,8.97152174 29.233223,8.95438446 C29.230712,8.95438446 29.2290379,8.95352759 29.2273639,8.95352759 C28.694192,8.87812356 28.2455575,8.65276833 28.2455575,7.88330447 C28.2455575,7.6493806 28.3150289,7.41117242 28.4656897,7.21752115 C28.510051,7.16096813 28.5619453,7.10869943 28.6213726,7.06071505 C28.6263946,7.05728759 28.6305796,7.05300327 28.6347647,7.04957581 C28.68917,7.00758948 28.7502713,6.97160119 28.8180687,6.93989722 C28.8314608,6.93304231 28.8431788,6.92533054 28.8565709,6.91933249 C28.9201832,6.89191284 28.9913286,6.8713481 29.066659,6.85421082 C29.0884212,6.84906964 29.1068353,6.84135786 29.1294344,6.83707354 C29.2273639,6.8190794 29.3345005,6.80794017 29.4516812,6.80794017 L31.1457785,6.80794017 L31.1457785,7.57740403 L29.59732,7.57740403 C29.4424741,7.57740403 29.3428706,7.58425894 29.2574961,7.64252569 C29.1662626,7.70164931 29.1319454,7.7899063 29.1319454,7.90472607 C29.1319454,8.03925372 29.2097868,8.13265189 29.3160864,8.1729245 C29.4048089,8.20462847 29.4993904,8.21319711 29.6433552,8.21491084 L30.0995227,8.22690693 C30.5590383,8.23975989 30.871241,8.32030511 31.062078,8.51652696 C31.228642,8.69304094 31.3156904,8.91325498 31.3156904,9.28256336 C31.3156904,10.0623096 30.8402718,10.4256199 29.9898751,10.4256199 L29.9898751,10.4256199 Z" id="Fill-8" fill="#FFFFFF"></path>
                                        <path d="M20.1987543,7.54004535 C20.096231,7.48530612 19.9394308,7.4829932 19.7852152,7.4829932 L18.7143212,7.4829932 L18.7143212,8.21310658 L19.7714305,8.21310658 C19.9394308,8.21310658 20.0841695,8.20693878 20.1987543,8.14680272 C20.311616,8.08512472 20.3788161,7.97179138 20.3788161,7.83378685 C20.3788161,7.69424036 20.311616,7.59401361 20.1987543,7.54004535" id="Fill-9" fill="#FFFFFF"></path>
                                        <path d="M17.0498263,2.46226757 C17.1614824,2.41678005 17.3129064,2.30498866 17.4291512,2.13151927 C17.3129064,2.30498866 17.1614824,2.41678005 17.0498263,2.46226757" id="Fill-10" fill="#2584BA"></path>
                                        <path d="M16.2088964,9.07029478 C16.1155948,9.07877551 16.0207635,9.08417234 15.9251675,9.08417234 C16.0207635,9.08417234 16.1155948,9.07877551 16.2088964,9.07029478" id="Fill-11" fill="#2584BA"></path>
                                        <path d="M15.9701539,6.80272109 C16.0565727,6.80272109 16.1452857,6.80734694 16.2332341,6.81582766 C16.1452857,6.80734694 16.0565727,6.80272109 15.9701539,6.80272109" id="Fill-12" fill="#2584BA"></path>
                                        <path d="M16.6127389,9.07029478 C16.5500279,9.08571429 16.4857874,9.09727891 16.4200174,9.10575964 C16.4857874,9.09727891 16.5500279,9.08571429 16.6127389,9.07029478" id="Fill-13" fill="#2584BA"></path>
                                        <path d="M16.8154924,8.97959184 C16.7611938,9.00657596 16.704601,9.02970522 16.6449491,9.04897959 C16.704601,9.02970522 16.7611938,9.00657596 16.8154924,8.97959184" id="Fill-14" fill="#2584BA"></path>
                                        <path d="M16.6449491,6.80272109 C16.7061306,6.82199546 16.7642529,6.84589569 16.820081,6.87365079 C16.7634881,6.84589569 16.7061306,6.82122449 16.6449491,6.80272109" id="Fill-15" fill="#2584BA"></path>
                                        <path d="M16.4200174,6.80272109 C16.4834931,6.81120181 16.5462041,6.82276644 16.6073855,6.83741497 C16.5462041,6.82276644 16.4834931,6.81120181 16.4200174,6.80272109" id="Fill-16" fill="#2584BA"></path>
                                        <path d="M16.9598536,6.93877551 C17.0348008,6.98195011 17.1043947,7.03206349 17.1632818,7.09605442 C17.1036299,7.03206349 17.0348008,6.98195011 16.9598536,6.93877551" id="Fill-17" fill="#2584BA"></path>
                                        <path d="M27.6304356,9.93197279 C27.5883734,9.97437642 27.5378987,10.0106122 27.4866592,10.0453061 C27.5394282,10.0113832 27.5883734,9.97514739 27.6304356,9.93197279" id="Fill-18" fill="#2584BA"></path>
                                        <path d="M25.777178,6.82507937 C25.8635967,6.81043084 25.9568984,6.80272109 26.0593773,6.80272109 C25.9568984,6.80272109 25.8635967,6.81043084 25.777178,6.82507937" id="Fill-19" fill="#2584BA"></path>
                                        <path d="M27.2918233,10.2040816 C27.2551145,10.2164172 27.2115227,10.222585 27.1717548,10.2326077 C27.2122875,10.223356 27.2543497,10.2156463 27.2918233,10.2040816" id="Fill-20" fill="#2584BA"></path>
                                        <path d="M25.2823281,7.02897959 C25.3335676,6.99428571 25.3924547,6.96498866 25.4551657,6.93877551 C25.3924547,6.96498866 25.3343323,6.99428571 25.2823281,7.02897959" id="Fill-21" fill="#2584BA"></path>
                                        <path d="M26.6383516,8.90122449 C26.5198126,8.89736961 26.3959202,8.89428571 26.2720278,8.88888889 C26.3959202,8.89351474 26.5198126,8.89736961 26.6383516,8.90122449" id="Fill-22" fill="#2584BA"></path>
                                        <path d="M26.2460257,8.9000907 C25.981416,8.88544218 25.7191006,8.85306122 25.5072599,8.75283447 C25.7206301,8.85229025 25.9806512,8.88698413 26.2460257,8.9000907" id="Fill-23" fill="#2584BA"></path>
                                        <path d="M25.5972326,6.85668934 C25.6561197,6.83356009 25.7234193,6.81736961 25.7922484,6.80272109 C25.7234193,6.81736961 25.6561197,6.83356009 25.5972326,6.85668934" id="Fill-24" fill="#2584BA"></path>
                                        <path d="M27.0367957,8.16326531 C27.111743,8.17251701 27.1805721,8.18562358 27.2440478,8.20181406 C27.1798073,8.18639456 27.1125078,8.17251701 27.0367957,8.16326531" id="Fill-25" fill="#2584BA"></path>
                                        <path d="M25.3807583,8.69197279 C25.272926,8.64031746 25.1788595,8.57247166 25.1023827,8.48072562 C25.1788595,8.57247166 25.272926,8.64108844 25.3807583,8.69197279" id="Fill-26" fill="#2584BA"></path>
                                        <path d="M30.1251086,8.90045351 C30.0134525,8.89659864 29.8972077,8.89428571 29.780963,8.88888889 C29.8972077,8.89351474 30.0134525,8.89659864 30.1251086,8.90045351" id="Fill-27" fill="#2584BA"></path>
                                        <path d="M28.7012906,7.03746032 C28.7502358,6.99968254 28.8075934,6.96730159 28.8687748,6.93877551 C28.8068286,6.96730159 28.7510006,6.99968254 28.7012906,7.03746032" id="Fill-28" fill="#2584BA"></path>
                                        <path d="M29.1511541,6.82893424 C29.240632,6.81197279 29.3377575,6.80272109 29.4455898,6.80272109 C29.3385223,6.80272109 29.240632,6.81274376 29.1511541,6.82893424" id="Fill-29" fill="#2584BA"></path>
                                        <path d="M28.6113179,7.17056689 C28.6518506,7.11968254 28.6992663,7.07265306 28.7535648,7.02947846 C28.6992663,7.07265306 28.6518506,7.11968254 28.6113179,7.17056689" id="Fill-30" fill="#2584BA"></path>
                                        <path d="M29.6348474,8.91972789 C29.5170731,8.91433107 29.3992988,8.90507937 29.2861132,8.88888889 C29.4000636,8.90430839 29.5163083,8.91433107 29.6348474,8.91972789" id="Fill-31" fill="#2584BA"></path>
                                        <path d="M28.881236,6.86131519 C28.9393584,6.83664399 29.0051284,6.81891156 29.0731928,6.80272109 C29.0043637,6.81814059 28.9393584,6.83664399 28.881236,6.86131519" id="Fill-32" fill="#2584BA"></path>
                                        <path d="M20.8286796,6.93877551 C20.9120393,6.98888889 20.9801036,7.05056689 21.0405203,7.11995465 C20.9801036,7.05056689 20.9120393,6.98888889 20.8286796,6.93877551" id="Fill-33" fill="#2584BA"></path>
                                    </g>
                                </g>
                            </g>
                        </g>
                    </g>
                    <g id="img-fi-mastercard" transform="translate(33.000000, 0.000000)">
                        <rect id="Rectangle" fill="#000000" x="0" y="0" width="30.8823529" height="20" rx="2"></rect>
                        <g id="Mastercard-logo" transform="translate(5.018369, 1.666667)">
                            <g id="Group-3" transform="translate(1.067221, 14.032491)">
                                <mask id="mask-8" fill="white">
                                    <use xlink:href="#path-7"></use>
                                </mask>
                                <g id="Clip-2"></g>
                                <path d="M17.2757718,1.59380952 C17.2757718,1.26377289 17.4787217,0.99967033 17.8065366,0.99967033 C18.1199439,0.99967033 18.3264513,1.25278388 18.3264513,1.59380952 C18.3264513,1.93483516 18.1199439,2.18794872 17.8065366,2.18794872 C17.4787217,2.18794872 17.2757718,1.92384615 17.2757718,1.59380952 Z M18.6540883,1.59380952 L18.6540883,0.0132234432 L18.3122217,0.0132234432 L18.3122217,0.93007326 C18.1946494,0.772380952 18.0023717,0.673296703 17.7601124,0.673296703 C17.2828866,0.673296703 16.9194977,1.05846154 16.9194977,1.59380952 C16.9194977,2.12934066 17.2828866,2.51432234 17.7601124,2.51432234 C18.0023717,2.51432234 18.1946494,2.4152381 18.3122217,2.25754579 L18.3122217,2.4703663 L18.6540883,2.4703663 L18.6540883,1.59380952 Z M13.8387851,1.59380952 C13.8387851,1.26377289 14.041735,0.99967033 14.369372,0.99967033 C14.6827794,0.99967033 14.8894646,1.25278388 14.8894646,1.59380952 C14.8894646,1.93483516 14.6827794,2.18794872 14.369372,2.18794872 C14.041735,2.18794872 13.8387851,1.92384615 13.8387851,1.59380952 Z M15.2171016,1.59380952 L15.2171016,0.717252747 L14.875235,0.717252747 L14.875235,0.93007326 C14.7576628,0.772380952 14.565385,0.673296703 14.3231257,0.673296703 C13.8458999,0.673296703 13.482511,1.05846154 13.482511,1.59380952 C13.482511,2.12934066 13.8458999,2.51432234 14.3231257,2.51432234 C14.565385,2.51432234 14.7576628,2.4152381 14.875235,2.25754579 L14.875235,2.4703663 L15.2171016,2.4703663 L15.2171016,1.59380952 Z M19.2421273,2.33886447 L19.2421273,2.38208791 L19.2807251,2.38208791 C19.2894408,2.38208791 19.2965556,2.38025641 19.3018917,2.37659341 C19.3070499,2.37311355 19.309718,2.36761905 19.309718,2.36029304 C19.309718,2.35315018 19.3070499,2.34783883 19.3018917,2.34417582 C19.2965556,2.34069597 19.2894408,2.33886447 19.2807251,2.33886447 L19.2421273,2.33886447 Z M19.2810809,2.30864469 C19.3011802,2.30864469 19.3168328,2.31322344 19.3276829,2.3225641 C19.338533,2.33172161 19.3440469,2.34435897 19.3440469,2.36029304 C19.3440469,2.373663 19.3396002,2.38465201 19.3310624,2.39326007 C19.3223468,2.40186813 19.3098959,2.40736264 19.2938875,2.40919414 L19.345292,2.47018315 L19.3050934,2.47018315 L19.2574241,2.40974359 L19.2421273,2.40974359 L19.2421273,2.47018315 L19.2086877,2.47018315 L19.2086877,2.30864469 L19.2810809,2.30864469 Z M19.2711201,2.52567766 C19.2894408,2.52567766 19.3063384,2.5221978 19.3221689,2.51505495 C19.3378215,2.50791209 19.3516954,2.49820513 19.3634348,2.48611722 C19.3753521,2.47384615 19.3846014,2.45956044 19.3915383,2.44289377 C19.3982974,2.42641026 19.4016769,2.40882784 19.4016769,2.39014652 C19.4016769,2.37128205 19.3982974,2.35369963 19.3915383,2.33721612 C19.3846014,2.3207326 19.3753521,2.30644689 19.3634348,2.29417582 C19.3516954,2.28190476 19.3378215,2.27238095 19.3221689,2.26542125 C19.3063384,2.25827839 19.2894408,2.25479853 19.2711201,2.25479853 C19.2526216,2.25479853 19.2351904,2.25827839 19.219182,2.26542125 C19.2029958,2.27238095 19.1889441,2.28190476 19.1770268,2.29417582 C19.1652873,2.30644689 19.1558602,2.3207326 19.1491012,2.33721612 C19.1423421,2.35369963 19.1389626,2.37128205 19.1389626,2.39014652 C19.1389626,2.40882784 19.1423421,2.42641026 19.1491012,2.44289377 C19.1558602,2.45956044 19.1652873,2.47384615 19.1770268,2.48611722 C19.1889441,2.49820513 19.2029958,2.50791209 19.219182,2.51505495 C19.2351904,2.5221978 19.2526216,2.52567766 19.2711201,2.52567766 Z M19.2711201,2.21615385 C19.2949548,2.21615385 19.3171885,2.2207326 19.3379994,2.22970696 C19.3588102,2.23886447 19.3771308,2.25131868 19.3927834,2.2670696 C19.4082581,2.28282051 19.4205311,2.30131868 19.4296025,2.3225641 C19.438496,2.34362637 19.4431207,2.36615385 19.4431207,2.39014652 C19.4431207,2.41395604 19.438496,2.43648352 19.4296025,2.45754579 C19.4205311,2.47860806 19.4082581,2.49692308 19.3927834,2.51267399 C19.3771308,2.52842491 19.3588102,2.54106227 19.3379994,2.55021978 C19.3171885,2.55956044 19.2949548,2.56413919 19.2711201,2.56413919 C19.2467519,2.56413919 19.2241624,2.55956044 19.2029958,2.55021978 C19.1818293,2.54106227 19.1635086,2.52842491 19.1482118,2.51267399 C19.1325592,2.49692308 19.120464,2.47860806 19.1113927,2.45754579 C19.1024992,2.43648352 19.0980524,2.41395604 19.0980524,2.39014652 C19.0980524,2.36615385 19.1024992,2.34362637 19.1113927,2.3225641 C19.120464,2.30131868 19.1325592,2.28282051 19.1482118,2.2670696 C19.1635086,2.25131868 19.1818293,2.23886447 19.2029958,2.22970696 C19.2241624,2.2207326 19.2467519,2.21615385 19.2711201,2.21615385 Z M16.5278274,0.673296703 C16.3142052,0.673296703 16.1608811,0.776043956 16.0648312,0.93007326 L16.0648312,0.717252747 L15.7263441,0.717252747 L15.7263441,2.4703663 L16.0683886,2.4703663 L16.0683886,1.48373626 C16.0683886,1.19399267 16.2037478,1.00699634 16.4458292,1.00699634 C16.5207126,1.00699634 16.5989755,1.01798535 16.6774163,1.05095238 L16.7914311,0.720915751 C16.7094329,0.687948718 16.6025329,0.673296703 16.5278274,0.673296703 Z M3.38517309,1.59380952 C3.38517309,1.26377289 3.5883009,0.99967033 3.91593789,0.99967033 C4.22934525,0.99967033 4.43603048,1.25278388 4.43603048,1.59380952 C4.43603048,1.93483516 4.22934525,2.18794872 3.91593789,2.18794872 C3.5883009,2.18794872 3.38517309,1.92384615 3.38517309,1.59380952 Z M4.76366746,1.59380952 L4.76366746,0.717252747 L4.42162299,0.717252747 L4.42162299,0.93007326 C4.30422863,0.772380952 4.11177302,0.673296703 3.86969162,0.673296703 C3.39246577,0.673296703 3.02907686,1.05846154 3.02907686,1.59380952 C3.02907686,2.12934066 3.39246577,2.51432234 3.86969162,2.51432234 C4.11177302,2.51432234 4.30422863,2.4152381 4.42162299,2.25754579 L4.42162299,2.4703663 L4.76366746,2.4703663 L4.76366746,1.59380952 Z M9.3724633,0.99967033 C9.62521692,0.99967033 9.79632809,1.16835165 9.82122992,1.44344322 L8.90217438,1.44344322 C8.9343689,1.18666667 9.09818739,0.99967033 9.3724633,0.99967033 Z M9.37957811,0.673296703 C8.88082995,0.673296703 8.53896335,1.04362637 8.53896335,1.59014652 C8.53896335,2.14765568 8.89523744,2.51432234 9.40447995,2.51432234 C9.66096883,2.51432234 9.89593542,2.44838828 10.1026206,2.2685348 L9.92083726,2.00827839 C9.77836319,2.12567766 9.59675768,2.19161172 9.42582437,2.19161172 C9.18712251,2.19161172 8.94504111,2.05223443 8.90217438,1.73684982 L10.1737687,1.73684982 C10.1773261,1.68923077 10.1808836,1.64142857 10.1808836,1.59014652 C10.1773261,1.04362637 9.85680397,0.673296703 9.37957811,0.673296703 Z M11.7730001,1.59380952 C11.7730001,2.12567766 12.1184241,2.51432234 12.6669759,2.51432234 C12.9234648,2.51432234 13.0943981,2.45571429 13.279561,2.30534799 L13.1015129,2.03025641 C12.9625963,2.13300366 12.8165648,2.18794872 12.6563037,2.18794872 C12.3606834,2.18428571 12.1290963,1.94582418 12.1290963,1.59380952 C12.1290963,1.24179487 12.3606834,1.00333333 12.6563037,0.99967033 C12.8165648,0.99967033 12.9625963,1.05461538 13.1015129,1.15736264 L13.279561,0.882271062 C13.0943981,0.731904762 12.9234648,0.673296703 12.6669759,0.673296703 C12.1184241,0.673296703 11.7730001,1.06212454 11.7730001,1.59380952 Z M6.60853761,0.856630037 C6.4304895,0.735567766 6.18467282,0.673296703 5.91395432,0.673296703 C5.48315259,0.673296703 5.21954889,0.882271062 5.21954889,1.23080586 C5.21954889,1.5167033 5.41182662,1.68923077 5.79300255,1.74417582 L5.96749326,1.76981685 C6.17044321,1.79912088 6.28090063,1.8725641 6.28090063,1.9714652 C6.28090063,2.10717949 6.13131175,2.19527473 5.87838027,2.19527473 C5.61121916,2.19527473 5.43672846,2.11084249 5.31221929,2.01194139 L5.13755071,2.28703297 C5.39048219,2.47769231 5.69321735,2.51432234 5.87482286,2.51432234 C6.36645621,2.51432234 6.63699685,2.27970696 6.63699685,1.94582418 C6.63699685,1.63776557 6.4304895,1.48007326 6.05642838,1.42512821 L5.88193767,1.39948718 C5.72167658,1.37750916 5.57920252,1.32604396 5.57920252,1.20882784 C5.57920252,1.08043956 5.71456177,0.992344322 5.91751172,0.992344322 C6.13486916,0.992344322 6.34493391,1.07677656 6.44827652,1.14271062 L6.60853761,0.856630037 Z M11.3847094,0.673296703 C11.1710872,0.673296703 11.0179409,0.776043956 10.9217131,0.93007326 L10.9217131,0.717252747 L10.5834039,0.717252747 L10.5834039,2.4703663 L10.9252705,2.4703663 L10.9252705,1.48373626 C10.9252705,1.19399267 11.0606298,1.00699634 11.302889,1.00699634 C11.3775945,1.00699634 11.4560353,1.01798535 11.5342982,1.05095238 L11.648313,0.720915751 C11.5664927,0.687948718 11.4595927,0.673296703 11.3847094,0.673296703 Z M8.22555598,0.717252747 L7.60585606,0.717252747 L7.60585606,0.185567766 L7.26043205,0.185567766 L7.26043205,0.717252747 L6.90060055,0.717252747 L6.90060055,1.03630037 L7.26043205,1.03630037 L7.26043205,1.8652381 C7.26043205,2.2721978 7.39934871,2.51432234 7.83726524,2.51432234 C7.99752633,2.51432234 8.18286712,2.46304029 8.30043935,2.37860806 L8.19353934,2.06688645 C8.08308192,2.13300366 7.96195228,2.1659707 7.86590235,2.1659707 C7.68056156,2.1659707 7.60585606,2.04857143 7.60585606,1.8725641 L7.60585606,1.03630037 L8.22555598,1.03630037 L8.22555598,0.717252747 Z M2.67653804,2.4703663 L2.67653804,1.366337 C2.67653804,0.952051282 2.43427877,0.676959707 2.0210862,0.673296703 C1.80390663,0.6696337 1.57943439,0.739230769 1.4227307,0.985018315 C1.30515847,0.790695971 1.11999555,0.673296703 0.859949259,0.673296703 C0.678343742,0.673296703 0.48606601,0.724578755 0.347149351,0.93007326 L0.347149351,0.717252747 L0.00528274619,0.717252747 L0.00528274619,2.4703663 L0.350706756,2.4703663 L0.350706756,1.46542125 C0.350706756,1.16102564 0.528754868,0.99967033 0.781686353,0.99967033 C1.02732516,0.99967033 1.16624182,1.16468864 1.16624182,1.46175824 L1.16624182,2.4703663 L1.5118437,2.4703663 L1.5118437,1.46542125 C1.5118437,1.16102564 1.69700662,0.99967033 1.94282329,0.99967033 C2.19575478,0.99967033 2.33093616,1.16468864 2.33093616,1.46175824 L2.33093616,2.4703663 L2.67653804,2.4703663 Z" id="Fill-1" fill="#FFFFFF" mask="url(#mask-8)"></path>
                            </g>
                            <mask id="mask-10" fill="white">
                                <use xlink:href="#path-9"></use>
                            </mask>
                            <g id="Clip-5"></g>
                            <polygon id="Fill-4" fill="#FF5F00" mask="url(#mask-10)" points="7.27809456 11.7771795 13.4421878 11.7771795 13.4421878 1.40978022 7.27809456 1.40978022"></polygon>
                            <path d="M7.91438978,6.59338828 C7.91438978,4.49009158 8.87079807,2.61701465 10.3601056,1.40968864 C9.27082825,0.526721612 7.89660276,-1.83150183e-05 6.40284846,-1.83150183e-05 C2.86661018,-1.83150183e-05 5.33610726e-05,2.95199634 5.33610726e-05,6.59338828 C5.33610726e-05,10.2347802 2.86661018,13.1867949 6.40284846,13.1867949 C7.89660276,13.1867949 9.27082825,12.6600549 10.3601056,11.7770879 C8.87079807,10.5697619 7.91438978,8.69668498 7.91438978,6.59338828" id="Fill-6" fill="#EB001B" mask="url(#mask-10)"></path>
                            <path d="M20.8362128,10.9231868 L20.8362128,10.4231868 L20.7332641,10.4231868 L20.6148025,10.7671381 L20.4966231,10.4231868 L20.3936743,10.4231868 L20.3936743,10.9231868 L20.4661615,10.9231868 L20.4661615,10.5459499 L20.5772897,10.8712899 L20.6525974,10.8712899 L20.7634436,10.5452341 L20.7634436,10.9231868 L20.8362128,10.9231868 Z M20.1843923,10.9231868 L20.1843923,10.5083693 L20.3163923,10.5083693 L20.3163923,10.4239026 L19.9807513,10.4239026 L19.9807513,10.5083693 L20.1124692,10.5083693 L20.1124692,10.9231868 L20.1843923,10.9231868 Z" id="Fill-7" fill="#F79E1B" mask="url(#mask-10)"></path>
                            <path d="M20.7201579,6.59338828 C20.7201579,10.2347802 17.8534232,13.1867949 14.3173628,13.1867949 C12.8236085,13.1867949 11.4492051,12.6600549 10.3601056,11.7770879 C11.8494131,10.5697619 12.8058214,8.69668498 12.8058214,6.59338828 C12.8058214,4.49009158 11.8494131,2.61701465 10.3601056,1.40968864 C11.4492051,0.526721612 12.8236085,-1.83150183e-05 14.3173628,-1.83150183e-05 C17.8534232,-1.83150183e-05 20.7201579,2.95199634 20.7201579,6.59338828" id="Fill-8" fill="#F79E1B" mask="url(#mask-10)"></path>
                        </g>
                    </g>
                    <g id="img-fi-visa">
                        <rect id="Rectangle" stroke="#979797" stroke-width="1.5" fill="#FFFFFF" x="0.75" y="0.75" width="29.0882353" height="18.5" rx="2"></rect>
                        <g id="Visa" transform="translate(2.941176, 5.882353)" fill="#16216A">
                            <path d="M17.9099152,0.731867644 C17.5215467,0.5858086 16.9135823,0.428218579 16.1531474,0.428218579 C14.2180178,0.428218579 12.8534542,1.40450798 12.841947,2.80456079 C12.8304397,3.83850507 13.8152654,4.41601485 14.5584395,4.76098325 C15.3207923,5.11363896 15.5787457,5.33849302 15.5749099,5.65367306 C15.5691563,6.13605227 14.9650277,6.35610175 14.4011743,6.35610175 C13.6186838,6.35610175 13.2025063,6.24655747 12.5581024,5.97846225 L12.3059026,5.86507431 L12.0306885,7.47652837 C12.4871412,7.67735955 13.3338803,7.85128512 14.2132231,7.85993336 C16.2730142,7.85993336 17.6097687,6.89517493 17.6251117,5.39999156 C17.6318242,4.5822531 17.1111228,3.95861942 15.9805392,3.44453002 C15.2949011,3.1110926 14.8758468,2.88912129 14.8787236,2.55184021 C14.8787236,2.25299571 15.2354472,1.9330111 16.0016357,1.9330111 C16.6422039,1.92244104 17.1072871,2.06273459 17.4678464,2.20783272 L17.6433314,2.2914323 L17.9099152,0.731867644" id="Fill-3"></path>
                            <path d="M22.9328135,0.560824817 L21.419615,0.560824817 C20.9506961,0.560824817 20.5997261,0.689587395 20.3945142,1.15755288 L17.4841483,7.75519365 L19.5420215,7.75519365 C19.5420215,7.75519365 19.8776485,6.86826932 19.9543633,6.67416454 C20.1787539,6.67416454 22.1771732,6.67704728 22.4629356,6.67704728 C22.5214306,6.92880695 22.7017103,7.75519365 22.7017103,7.75519365 L24.5198499,7.75519365 L22.9328135,0.560824817 L22.9328135,0.560824817 Z M20.5172578,5.20204312 C20.6802766,4.78596703 21.2978303,3.18796578 21.2978303,3.18796578 C21.2872821,3.20814499 21.4589313,2.77188969 21.5567426,2.50091172 L21.6900345,3.12166266 C21.6900345,3.12166266 22.0659368,4.84073917 22.1445694,5.20204312 L20.5172578,5.20204312 L20.5172578,5.20204312 Z" id="Fill-4"></path>
                            <path d="M7.20149491,0.558902987 L5.28362615,5.46821651 L5.07841419,4.47078699 C4.72264953,3.32153293 3.60932671,2.07426557 2.36558882,1.45063189 L4.11852087,7.74654541 L6.19173701,7.74462358 L9.27662892,0.558902987 L7.20149491,0.558902987" id="Fill-5"></path>
                            <path d="M3.50384393,0.555059328 L0.343196205,0.555059328 L0.319222846,0.704001116 C2.77697167,1.29976827 4.40428332,2.74114041 5.07841419,4.47078699 L4.39181717,1.16235746 C4.27290931,0.705922946 3.9296108,0.571394879 3.50384393,0.555059328" id="Fill-6"></path>
                            <polyline id="Fill-7" points="8.84510845 7.7523109 10.0696677 0.554098413 12.0297295 0.554098413 10.8022935 7.7523109 8.84510845 7.7523109"></polyline>
                        </g>
                    </g>
                </g>
            </g>
            <text id="+-more" font-family="Helvetica" font-size="14" font-weight="normal" line-spacing="19" fill="#3A3E46">
                <tspan x="109" y="16">+ more</tspan>
            </text>
        </g>
    </g>
</svg>